<?xml version="1.0" encoding="utf-8"?>
<!-- Generator: Adobe Illustrator 23.0.3, SVG Export Plug-In . SVG Version: 6.00 Build 0)  -->
<svg version="1.1" xmlns="http://www.w3.org/2000/svg" xmlns:xlink="http://www.w3.org/1999/xlink" x="0px" y="0px"
	 viewBox="0 0 335.6 71.5" style="enable-background:new 0 0 335.6 71.5;" xml:space="preserve">
<style type="text/css">
	.st0{clip-path:url(#SVGID_2_);}
	.st1{fill:#E7E7E7;}
	.st2{fill:#B8B8B8;}
	.st3{opacity:0.59;clip-path:url(#SVGID_6_);}
	.st4{clip-path:url(#SVGID_8_);}
	.st5{filter:url(#Adobe_OpacityMaskFilter);}
	.st6{clip-path:url(#SVGID_10_);fill:url(#SVGID_12_);}
	.st7{clip-path:url(#SVGID_10_);mask:url(#SVGID_11_);fill:url(#SVGID_13_);}
	.st8{fill:#4E4E4E;}
	.st9{clip-path:url(#SVGID_15_);fill:#FFFFFF;}
	.st10{fill:none;stroke:#B8B8B8;stroke-width:2.682;stroke-miterlimit:10;}
	.st11{clip-path:url(#SVGID_17_);fill:#FFFFFF;}
	.st12{clip-path:url(#SVGID_19_);}
	.st13{clip-path:url(#SVGID_23_);}
	.st14{fill:none;stroke:#4E4E4E;stroke-miterlimit:10;}
	.st15{clip-path:url(#SVGID_27_);}
	.st16{clip-path:url(#SVGID_31_);}
	.st17{clip-path:url(#SVGID_35_);}
	.st18{clip-path:url(#SVGID_39_);}
	.st19{fill:#FAFAFA;}
	.st20{opacity:0.78;}
	.st21{clip-path:url(#SVGID_57_);}
	.st22{clip-path:url(#SVGID_59_);}
	.st23{clip-path:url(#SVGID_63_);}
	.st24{clip-path:url(#SVGID_67_);}
	.st25{clip-path:url(#SVGID_71_);}
	.st26{clip-path:url(#SVGID_75_);}
</style>
<g id="Fondo">
	<g>
		<defs>
			<rect id="SVGID_5_" x="-132.8" y="270.6" width="1922.8" height="1082.3"/>
		</defs>
		<clipPath id="SVGID_2_">
			<use xlink:href="#SVGID_5_"  style="overflow:visible;"/>
		</clipPath>
		<g style="opacity:0.59;clip-path:url(#SVGID_2_);">
			<g>
				<defs>
					<rect id="SVGID_7_" x="-148.5" y="249.9" width="1958" height="1136"/>
				</defs>
				<clipPath id="SVGID_4_">
					<use xlink:href="#SVGID_7_"  style="overflow:visible;"/>
				</clipPath>
				<g style="clip-path:url(#SVGID_4_);">
					<defs>
						<rect id="SVGID_9_" x="-148.5" y="249.9" width="1958" height="1136"/>
					</defs>
					<clipPath id="SVGID_6_">
						<use xlink:href="#SVGID_9_"  style="overflow:visible;"/>
					</clipPath>
					<defs>
						<filter id="Adobe_OpacityMaskFilter" filterUnits="userSpaceOnUse" x="-716.5" y="-729.1" width="3094" height="3094">
							<feColorMatrix  type="matrix" values="1 0 0 0 0  0 1 0 0 0  0 0 1 0 0  0 0 0 1 0"/>
						</filter>
					</defs>
					<mask maskUnits="userSpaceOnUse" x="-716.5" y="-729.1" width="3094" height="3094" id="SVGID_8_">
						<g class="st5">
							
								<linearGradient id="SVGID_10_" gradientUnits="userSpaceOnUse" x1="-132.8086" y1="7357.2939" x2="-131.8086" y2="7357.2939" gradientTransform="matrix(1546.9999 -1546.9999 -1546.9999 -1546.9999 11587244 11177869)">
								<stop  offset="0" style="stop-color:#000000"/>
								<stop  offset="1" style="stop-color:#FFFFFF"/>
							</linearGradient>
							<polygon style="clip-path:url(#SVGID_6_);fill:url(#SVGID_10_);" points="-716.5,817.9 830.5,-729.1 2377.5,817.9 
								830.5,2364.9 							"/>
						</g>
					</mask>
					
						<linearGradient id="SVGID_11_" gradientUnits="userSpaceOnUse" x1="-132.8086" y1="7357.2939" x2="-131.8086" y2="7357.2939" gradientTransform="matrix(1546.9999 -1546.9999 -1546.9999 -1546.9999 11587244 11177869)">
						<stop  offset="0" style="stop-color:#231F20"/>
						<stop  offset="1" style="stop-color:#231F20"/>
					</linearGradient>
					<polygon style="clip-path:url(#SVGID_6_);mask:url(#SVGID_8_);fill:url(#SVGID_11_);" points="-716.5,817.9 830.5,-729.1 
						2377.5,817.9 830.5,2364.9 					"/>
				</g>
			</g>
		</g>
	</g>
</g>
<g id="Contenido">
	<g>
		<g>
			<path class="st2" d="M51.2,29.9c0.3,0.3,0.6,0.4,1,0.4c0.4,0,0.9,0,1.2-0.3c0.3-0.2,0.3-0.9,0.4-1.2c0-0.3,0.1-0.7,0-1
				c-0.1-0.3-0.3-0.5-0.6-0.7c-0.3-0.2-0.6-0.3-0.9-0.3c-0.2,0-0.5,0.1-0.6,0.2c-0.2,0.2-0.3,0.4-0.4,0.5c-0.2,0.1-0.4,0.2-0.6,0.2
				c-0.2,0-0.4,0-0.7,0c-0.2,0-0.5,0-0.7,0c-0.5,0-1-0.1-1.4-0.1c-1,0-1.9-0.1-2.9-0.1c-1.9,0-3.9,0-5.8,0c-1.9,0-3.8,0.1-5.6,0.2
				c-0.7,0-1.5,0.1-2.2,0.1c-0.3,0-0.7,0-0.8-0.1c-0.1-0.1,0-0.3,0.1-0.7c2.7-8.4,5.7-16.8,8.3-23.9c0.2-0.6,0.6-0.8,1.2-0.8
				C45.9,2,50.7,1.8,55.1,1.8h0.1c2.9,0,6.2,0,9.5,0.5l0.3,0.1c1,0.2,2,0.3,2.7,1.1C68,4,68.3,3.9,68.6,3.8C68.9,3.5,69,3.2,69,2.9
				c0-0.8-0.5-1.1-0.9-1.4c-0.9-0.6-2-0.8-2.8-0.9C59-0.3,52.6,0,46.4,0.3l-0.8,0c-6.6,0.3-13.4,1-20.3,1.9l-0.1,0
				C22,2.7,18.7,3.2,15.6,4c-0.7,0.2-1.3,0.4-1.8,0.9c-0.3,0.4-0.4,0.8-0.1,1.1c0.2,0.3,0.6,0.4,1,0.1c1.9-1,4-1.3,6.1-1.6
				c0.3,0,0.6-0.1,0.9-0.1c4.2-0.7,8.6-1.2,14.3-1.7l0.1,0c0.4,0,0.8-0.1,0.8,0c0,0.1-0.1,0.5-0.3,0.9C33.4,12,30.9,19,28.7,25.7
				c-0.8,2.4-0.8,2.4-3.2,2.5l-0.1,0c-6.5,0.4-14.2,1-21.9,2.3l-0.2,0c-0.9,0.2-1.9,0.3-2.7,0.9c-0.6,0.4-0.7,0.9-0.4,1.5
				c0.3,0.6,0.8,0.7,1.4,0.5c2.5-1.1,5.3-1.4,7.9-1.8l0.3,0c3.9-0.5,7.8-0.9,11.1-1.3c1.5-0.2,3-0.2,4.6-0.3c0.6,0,1.3-0.1,1.9-0.1
				l-0.1,0.3c-0.1,0.3-0.2,0.6-0.2,0.9c-2,6.9-4,14.4-4.9,22.1c-0.7,6.2-1.5,16.9,1.3,18.1c0.2,0.1,0.6,0.3,0.9,0.3
				c0.3,0,0.7-0.1,0.9-0.6c0.1-0.3,0.2-0.6,0.1-0.8c-0.2-0.4-0.6-0.7-0.9-0.8c-1.8-0.8-0.9-12.7-0.1-17.5c1.1-7.5,3.2-14.9,5.1-21.3
				c0.2-0.6,0.5-0.8,1.1-0.8c1.2,0,2.5-0.1,3.7-0.1c5.2-0.2,10.6-0.4,15.9,0.1C50.6,29.6,50.9,29.6,51.2,29.9"/>
			<path class="st2" d="M118.1,50.3c-0.8-3.5-0.7-7-0.6-10.4c0-0.6,0.2-1.2,0.5-1.8c3.6-6.8,7.7-15,10.7-23.8c0.6-1.7,1.2-3.8,1.2-6
				c0-0.9-0.1-1.9-1.1-2.4c-0.9-0.5-1.9-0.4-2.9,0.2c-0.7,0.4-1.1,1-1.5,1.4c-1,1.2-1.7,2.6-2.3,4c-3,7.5-5,15.8-5.9,24.6
				c-0.2,1.5-0.4,3-1.5,4.5l-0.6,0.8c-1.2,1.6-2.3,3.2-3.7,4.6c-1,1.1-1.9,1.9-2.9,2.5c-0.7,0.4-1.3,0.5-1.8,0.4
				c-0.5-0.2-0.9-0.7-1.1-1.4c-0.4-1.2-0.5-2.4-0.5-3.4c0-2.6,0.3-5.2,0.7-7.8c0.1-0.6,0.2-1.3,0.2-1.9c0.2-1.6,1-2.8,1.7-3.7
				c4-5.4,6.8-10,8.7-14.6c0.8-1.8,1.5-3.8,1.2-6.1c-0.1-1.3-1.1-2.3-2.4-2.4c-1.1-0.1-2,0.3-2.9,1.3c-1,1.1-1.8,2.4-2.6,4.2
				c-2.1,4.9-3.3,10.1-4.3,15.1l0,0.3c-0.7,3.8-0.7,3.8-3.8,6.3c-2.9,2.4-5.5,4.5-8.8,5.9c-0.8,0.4-1.8,0.7-2.8,0.6
				c-1-0.1-1.6-0.6-1.6-1.5c-0.1-1,0.1-2.2,1.2-2.5c1.1-0.3,2.1-0.9,2.9-1.6c1.2-1,1.7-2.4,1-3.3c-0.6-0.8-2.2-0.8-3.4,0.1
				c-1.7,1.2-2.8,2.9-3.3,5.1c-0.4,1.8,0,3.3,0.9,4.2c1,0.9,2.5,1.1,4.3,0.6c3-0.9,5.6-2.7,7.9-4.5c1.1-0.8,2.1-1.6,3.2-2.5
				c0.4-0.3,0.8-0.7,1.2-1c0,0.1,0,0.1,0,0.2c0,0.3,0,0.6-0.1,0.9c-0.3,1.8-0.5,3.8-0.5,6c-0.1,2.3-0.1,4.5,0.8,6.7
				c0.5,1.3,1.2,2.1,2,2.4c0.8,0.3,1.9,0.1,3-0.6c0.3-0.2,0.5-0.3,0.8-0.5c2.4-1.8,4.2-4.2,5.7-6.3c0.2-0.3,0.5-0.7,0.7-1l0.1-0.2
				c0,0.4,0,0.8,0,1.2c0,1.2,0.1,2.3,0.2,3.3c0.2,2.8,0.6,5.8,1.8,8.6c0.2,0.5,0.5,1.1,1.1,1.4c0.3,0.2,0.5,0.2,0.8,0.2
				c0.3,0,0.6-0.1,0.8-0.4c0.4-0.5,0.3-1-0.2-1.5C118.9,53.5,118.5,52,118.1,50.3 M118.1,34.8c0.3-3.5,1-7,1.7-9.9
				c1.1-4.6,2.3-9.5,4.4-14c0.5-1.2,1.1-2.2,1.8-3c0.5-0.5,0.9-0.8,1.3-0.8c0.2,0,0.3,0,0.5,0.1c0.6,0.3,0.7,0.9,0.5,1.8
				c-0.5,3.2-1.6,6.2-2.8,9.3c-2.5,6.4-4.9,11.6-7.4,16.4C118.2,34.7,118.1,34.8,118.1,34.8 M106.1,29c0.8-4.6,2-9.9,4-15.1
				c0.5-1.3,1.1-2.7,2.1-3.9c0.5-0.6,0.9-1,1.5-1c0.2,0,0.3,0,0.5,0.1c0.9,0.3,0.9,1.1,0.9,2c0,1.3-0.4,2.4-0.9,3.8
				C112.1,20.3,108.9,25,106.1,29 M88.4,35.9c0.4-0.9,1-1.7,1.7-2.3c0.3-0.3,0.5-0.4,0.7-0.4c0.1,0,0.2,0,0.3,0.1
				c0.3,0.3,0.2,0.6-0.3,1.1C90.2,35.1,89.4,35.6,88.4,35.9"/>
			<path class="st2" d="M244.6,16c-0.2-0.1-0.4-0.1-0.7,0c-0.3,0.1-0.5,0.3-0.5,0.5c-0.1,0.3-0.1,0.6,0.1,0.9
				c0.8,1.5,0.7,3.2,0.5,4.8l0,0.2c-0.5,5.3-1.7,10.9-3.6,17.1c-1.6,5.3-4.1,12.2-8.2,18.4c-1.9,2.9-3.9,5-6.2,6.5
				c-3.5,2.3-7.6,2.2-10.5-0.2c-1.2-1-2.1-2.4-2.9-4.2c-1.3-3-1.9-6.5-2-11c-0.1-7.6,1.1-15.4,3.8-23.7c2.2-6.7,4.5-11.6,7.5-15.8
				c2.2-3,4.2-4.9,6.6-6.1c2.4-1.2,4.9-1.3,7.1-0.3c2.1,1,3.5,2.8,4.1,5.3c1.4,6.1,0,11.4-4.3,16c-0.4,0.5-0.7,1-0.6,1.5
				c0,0.3,0.2,0.6,0.4,0.8c0.3,0.2,0.7,0.3,1,0.3c0.4-0.1,0.7-0.4,1.1-0.9c3.9-6,5.3-11.8,4.1-17.9c-0.8-4-3.1-6.5-6.8-7.1
				c-2.7-0.5-5.3,0.1-8,1.9c-3.1,2-5.7,4.8-8,8.6c-6.4,10.4-9.9,22.2-10.4,35.2v0c0.1,4.7,0.4,9.6,2.4,14c1.7,3.6,4.4,6,7.6,6.8
				c0.7,0.2,1.5,0.3,2.2,0.3c2.6,0,5.2-1,7.6-2.9c2.7-2.2,5.1-5.1,7.1-8.8c5.9-10.8,9.5-22.3,10.5-34.3c0.2-1.9,0-3.4-0.5-4.8
				C245.1,16.3,244.9,16.1,244.6,16"/>
			<path class="st2" d="M85.2,14.7c0.5-1.5,1.1-3,1.6-4.4c0.4-1.2,0.9-2.5,1.3-3.7c0.2-0.5,0.5-1.5-0.2-1.9
				c-0.7-0.3-1.1,0.4-1.4,0.8c0,0.1-0.1,0.1-0.1,0.2c-1.3,2-2.1,4.2-2.7,6c-0.7,2.1-1.3,4.2-1.9,6.2c-0.8,2.8-1.7,5.8-2.8,8.6
				c-0.3,0.7-0.5,1.3-0.8,2c-0.6,1.5-1.2,3-1.9,4.5c-0.9-1-1.9-1.5-3-1.6c-1.1,0-2.2,0.5-3.2,1.6c-0.6,0.6-0.9,1.2-1.2,1.9
				c-0.2,0.4-0.4,0.7-0.8,1c-0.8,0.4-1.6,0.9-2.5,1.3c-1.4,0.8-2.9,1.6-4.4,2.3c-2.4,1.2-5,2.4-7.8,2.8c-1,0.1-1.7,0-2.1-0.3
				c-0.4-0.4-0.6-1-0.7-2.1c-0.1-1.9,0.2-3.9,1-5.7l0-0.1c0.1-0.3,0.3-0.7-0.1-1c-0.3-0.3-0.7-0.3-1.2-0.2c-0.4,0.2-0.7,0.5-0.9,1
				c-0.5,2.1-0.8,3.9-0.7,5.7c0.2,1.6,0.7,2.7,1.5,3.4c0.9,0.7,2.1,0.9,3.8,0.7c2.2-0.3,4.2-1.1,6.2-2c2.7-1.2,5.2-2.6,7.8-4.2
				l0.1-0.1c0,0.2,0,0.3,0.1,0.5c0.1,0.5,0.1,0.9,0.2,1.3c0.3,1.2,1,2.1,2,2.4c1,0.3,2,0,2.9-0.8c0.5-0.4,1-1,1.5-1.7
				c1.5-1.9,2.5-4.1,3.3-6c0.2-0.5,0.5-1,0.7-1.6c-0.3,3.6-0.6,7.3-0.6,10.9c0,5.2,0.6,9,1.9,12.5c0.3,0.8,0.8,1.9,1.8,2.5
				c0.2,0.1,0.5,0.3,0.8,0.3c0.1,0,0.1,0,0.2,0c0.2,0,0.4-0.2,0.5-0.4c0.1-0.2,0.2-0.4,0.1-0.6c-0.1-0.2-0.2-0.5-0.5-0.7
				c-1.1-0.7-1.7-1.8-2.1-3.3c-1.3-4.6-1.2-9.4-1-14C80.5,31.4,82.2,23.5,85.2,14.7 M71.6,39.8c-0.6-0.2-0.9-0.8-1-1.6
				c0-0.2,0-0.3,0-0.5c0-0.1,0-0.1,0-0.2c0-1.3,0.4-2.5,1.1-3.5c0.5-0.7,1.2-1,1.9-0.8c0.9,0.3,1.4,1,1.9,1.8c0,0,0,0.1-0.1,0.3
				c-0.6,1.3-1.3,2.5-2.2,3.6C72.7,39.4,72.3,40,71.6,39.8"/>
			<path class="st2" d="M203,35.3l-0.2,0c-0.6,0-1.1,0-1.7,0.1c-0.8,0-1.6,0.1-2.4,0.1c-15.8,0.3-31.6,0.6-47.4,0.9
				c-0.1,0-0.1,0-0.2,0c-0.3,0-0.6,0-0.8,0.2c-0.1,0.1-0.2,0.3-0.2,0.5c0,0.2,0.1,0.4,0.2,0.6c0.2,0.2,0.5,0.2,0.8,0.2
				c0.1,0,0.1,0,0.2,0l26.1-0.4v-0.2h4.6c6.9,0,13.9,0,20.8,0h0c0.1,0,0.2,0,0.3,0c0.4,0,0.8,0,1.1-0.2c0.2-0.1,0.2-0.4,0.2-0.7
				c0-0.3-0.1-0.6-0.3-0.8C204,35.2,203.5,35.2,203,35.3"/>
			<path class="st2" d="M145,35.3c-0.2,0.1-0.3,0.2-0.5,0.3c-0.1,0-0.1,0.1-0.2,0.1c-4.2,2.5-8,4.1-11.7,5c-1.5,0.3-3.1,0.6-4.6-0.2
				c-0.9-0.4-1-1.1-1-2.2c0-0.9,0.5-1,1.3-1.1l0,0c1.6-0.3,2.7-1.1,3.3-2.3c0.4-0.8,0.4-1.5-0.1-2.1c-0.6-0.8-1.4-0.7-2-0.6
				c-1.8,0.4-2.8,1.7-3.4,2.7c-0.8,1.3-1.6,3.2-0.5,5.3c1,1.8,2.9,2,4.8,2.1h0l0,0c0.1,0,0.2,0,0.3,0c0.3,0,0.6,0,1-0.1
				c4.4-0.7,8.6-2.4,13.4-5.5c0.2-0.1,0.3-0.2,0.5-0.4c0.3-0.3,0.4-0.6,0.1-0.9C145.8,35.3,145.5,35.1,145,35.3 M127.8,36.1
				c0.6-1.2,1.1-1.9,1.9-2.4c0.2-0.2,0.4-0.2,0.5-0.2c0.2,0,0.3,0.1,0.4,0.2c0.3,0.3,0.2,0.5-0.1,0.9
				C129.9,35.4,129.1,35.8,127.8,36.1"/>
			<path class="st2" d="M335.5,35.5c-0.2-0.3-0.6-0.4-0.9-0.2c-0.4,0.2-0.8,0.5-1.1,0.7c-2.2,1.6-4.7,3.2-7.4,4.3
				c-1.9,0.8-3.3,0.9-4.2,0.3c-1-0.6-1.5-1.9-1.8-3.9c0-0.1,0-0.1,0-0.2c0-0.4-0.1-0.9-0.7-1.1c-0.8-0.2-1.1,0.4-1.3,0.9
				c-0.6,1.3-1.3,2.3-2,3.2c-0.3,0.4-0.6,0.6-0.9,0.4c-0.3-0.2-0.2-0.5,0-0.9c0.6-1.5,1.6-2.6,2.9-3.5c0.4-0.3,0.8-0.4,1-0.4
				c0.2,0,0.4,0.2,0.6,0.5c0.2,0.3,0.5,0.4,0.8,0.2c0.4-0.2,0.3-0.6,0.2-0.9c-0.3-0.9-1.2-1.4-2.3-1.2c-1.3,0.2-2.3,1-3.3,1.7
				c-3.4,2.6-6.7,4.2-10.1,5c-2.3,0.6-3.2,0.2-4.5-1.9c-0.3-0.5-0.7-1.1-1-1.7c-0.4-0.7-0.8-1.3-1.2-2c-0.6-0.9-1.2-1.4-1.8-1.5
				c-0.6-0.1-1.3,0.1-2.2,0.8c-1.8,1.3-3.2,3.1-4.6,4.8l-0.1,0.2c-0.6,0.7-1.1,1.3-1.7,2l-0.6,0.7c0,0,0,0,0,0
				c0-0.1-0.1-0.2-0.1-0.2c0.1-3.6,0.4-7.7,2.3-11.7c0-0.1,0.1-0.1,0.1-0.2c0.3-0.6,0.7-1.4-0.2-1.9c-0.3-0.2-0.6-0.2-0.9-0.1
				c-0.5,0.2-0.7,0.7-0.9,1.2l-0.1,0.1c-0.8,1.7-1.3,3.5-1.8,5.7c-0.1,0.5-0.3,0.7-0.7,0.9c-2.8,0.7-5.6,0.5-8.4-0.7
				c0,0-0.1,0-0.1,0c-0.1,0-0.3-0.1-0.3-0.2c0,0,0-0.1,0-0.2c0.1-0.3,0.2-0.5,0.1-0.8c-0.1-0.3-0.5-0.5-0.8-0.6l0,0
				c-0.5-0.2-1-0.5-1.4-1c-0.6-0.7-1.2-1.2-1.8-1.6c-0.1,0-0.1-0.1-0.2-0.1c-0.4-0.2-0.8-0.5-1.1-0.4c-0.2,0-0.3,0.2-0.5,0.4
				c-0.1,0.2-0.2,0.5-0.1,0.6c0.1,0.3,0.5,0.5,0.9,0.6c0.1,0,0.2,0.1,0.3,0.1l0.1,0c0,0,0.1,0,0.1,0.1c0.1,0,0.1,0.1,0.2,0.1
				c0.4,0.2,0.9,0.4,0.9,0.8c0,0.2-0.1,0.2-0.4,0.4c-0.2,0.1-0.4,0.1-0.5,0.2c-0.6,0.5-1.1,1.1-1.6,1.6c-0.5,0.5-1,1.1-1.6,1.5
				l-0.5,0.4c-3.4,2.7-6.8,5.6-10.8,7.5c-0.8,0.4-1.6,0.7-2.5,0.8c-0.7,0-1.1-0.1-1.4-0.4c-0.3-0.3-0.3-0.7-0.2-1.4
				c0.1-0.9,0.3-1.8,0.7-2.7c0.7-1.6,1.2-3.6-1.2-5c-0.2-0.1-0.3-0.2-0.3-0.4c0-0.1,0.1-0.3,0.3-0.5c0.6-0.5,1.2-1.1,1.7-1.6l0,0
				c0.3-0.3,0.7-0.8,0.3-1.4c-0.5-0.6-1-0.2-1.3,0l-0.1,0.1c-0.4,0.3-0.8,0.6-1.1,0.9c0,0,0,0,0,0c0,0,0,0-0.1,0.1c0,0,0,0,0,0
				c0,0-0.1,0.1-0.1,0.1c-0.1,0.1-0.1,0.1-0.2,0.2l0,0c0,0,0,0,0,0c-0.1,0.1-0.2,0.2-0.3,0.3c-0.6,0.6-1.2,1.2-1.8,1.9
				c-0.5,0.6-1,1.2-1.5,1.8c-0.5,0.6-1,1.1-1.4,1.8c-0.1,0.2-0.2,0.3-0.2,0.5c0,0.2,0.1,0.5,0.3,0.6c0.4,0.2,0.8,0.1,1.1-0.2
				c0.4-0.3,0.7-0.7,1-1.1c0.3-0.3,0.6-0.7,0.9-1c0.1-0.2,1-1.3,1.3-1.1c0,0,0,0,0,0c0.2,0.2,0.5,0.4,0.9,0.7
				c0.7,0.5,0.9,1.1,0.6,1.9c-0.5,1.3-0.9,2.6-1.1,4c-0.1,1,0.1,1.9,0.8,2.5c0.5,0.6,1.3,0.9,2.2,0.9c0.1,0,0.2,0,0.3,0
				c1-0.1,2-0.4,3.2-1c2.3-1.1,4.5-2.6,7.1-4.5c0.9-0.7,1.8-1.4,2.8-2.2c0.4-0.3,0.7-0.6,1.1-0.9c0,0.2,0,0.3,0,0.5c0,0.5,0,1,0,1.5
				c0.1,1.5,1.1,2.8,2.4,3.1c1.3,0.3,2.4-0.2,3.3-1.5c0.3-0.4,0.5-0.9,0.7-1.4l0.1-0.2c0.5-1.2,0.5-2.4,0.5-3.6c0-0.2,0-0.4,0-0.6
				c0.1,0,0.1,0,0.1,0c3,1.4,6,1.7,9.1,1c0.3-0.1,0.3,0,0.4,0c0,0,0,0.2,0,0.4c-0.1,1.8-0.2,3.8,0,5.7c0,0.1,0,0.2,0,0.3
				c0.1,0.6,0.2,1.4,1,1.5c0.8,0.2,1.2-0.4,1.5-0.9c0.1-0.1,0.1-0.2,0.2-0.3c0.3-0.4,0.7-0.9,1-1.3c1.7-2.3,3.6-4.7,5.8-6.6
				c0.5-0.4,0.9-0.6,1.1-0.6c0.3,0,0.5,0.3,0.9,0.9c0.3,0.5,0.7,1.1,1,1.7c0.4,0.7,0.8,1.4,1.2,2.1c1.3,2,3.2,2.8,5.6,2.4
				c2.5-0.4,4.6-1.5,6.4-2.5c0.5-0.3,0.9-0.5,1.4-0.8l0.5-0.3c-0.1,1.3,0.4,2.2,1.5,2.5c1.3,0.5,2.1-0.5,2.7-1.4
				c0.3-0.4,0.5-0.7,0.8-1.1c0.1-0.1,0.1-0.2,0.2-0.2c1.4,3.7,3.5,4.7,7.3,3.4c3.5-1.1,6.5-3.1,9.5-5.3c0.1-0.1,0.2-0.1,0.3-0.3
				C335.5,36.2,335.7,35.9,335.5,35.5 M273.4,41.2c-0.4,0.6-0.9,0.9-1.5,0.8c-0.6-0.1-0.9-0.5-1-1.2c-0.4-2.3,0.1-4.3,1.6-6
				c0.4-0.5,0.7-0.7,1-0.7c0.1,0,0.1,0,0.2,0c0.3,0.1,0.4,0.4,0.5,0.9c0,0.1,0,0.2,0,0.2c0.1,0.5,0.2,1,0.2,1.4c0,0.2,0,0.4,0.1,0.6
				C274.4,39,274,40.2,273.4,41.2"/>
			<path class="st2" d="M325.6,28.3c0.5-0.2,1-0.5,1.4-0.7c0.1-0.1,0.2-0.1,0.4-0.2l0,0c0.3-0.2,0.8-0.5,0.6-1
				c-0.2-0.6-0.8-0.4-1.1-0.3l-0.1,0c-0.4,0.1-0.8,0.3-1.1,0.4c0,0,0,0-0.1,0c0,0,0,0,0,0c0,0-0.1,0-0.1,0c-0.1,0-0.1,0.1-0.2,0.1
				c-0.1,0.1-0.2,0.1-0.3,0.2c-0.7,0.3-1.3,0.7-2,1c-0.6,0.3-1.1,0.7-1.7,1c-0.5,0.3-1.1,0.7-1.6,1.1c-0.1,0.1-0.2,0.2-0.3,0.4
				c-0.1,0.2,0,0.4,0.1,0.6c0.2,0.3,0.7,0.2,1,0.1c0.4-0.2,0.7-0.4,1.1-0.6c0.3-0.2,0.6-0.4,0.9-0.6c0.2-0.2,0.5-0.3,0.8-0.4
				C324.1,29,324.8,28.6,325.6,28.3"/>
		</g>
	</g>
</g>
</svg>
